# xmcd CD database file
#
# Track frame offsets:
#	150
#	127303
#	261713
#	298860
#
# Disc length: 4391 seconds
#
# Revision: 0
# Processed by: cddbd v1.5.2PL0 Copyright (c) Steve Scherf et al.
# Submitted via: CDex 2.00
#
DISCID=49112504
DTITLE=George Khan - Ah! CD2
DYEAR=1900
DGENRE=Jazz
TTITLE0=Trio in Unity 1
TTITLE1=Trio in Unity 2
TTITLE2=Mopomoso Flute Solo
TTITLE3=Mopomoso Baritone Solo
EXTD=
EXTT0=
EXTT1=
EXTT2=
EXTT3=
PLAYORDER=
